<svg xmlns="http://www.w3.org/2000/svg" version="1.1" xmlns:xlink="http://www.w3.org/1999/xlink" xmlns:svgjs="http://svgjs.dev/svgjs" width="100%" height="100%" viewBox="0 0 1000 600"><rect width="1000" height="600" x="0" y="0" fill="#673ab7"/><g><rect width="333.3333333333333" height="333.3333333333333" rx="13.333333333333334" ry="13.333333333333334" y="230.21134287995224" fill="#ffffff" transform="matrix(0.6009929883173184,0,0,0.6009929883173184,0,61.47910058617897)" x="207.98912048339844"/><path d="M347.9670815586071 460.33328556830304L347.9670815586071 460.33328556830304Q347.9670815586071 471.87801548332135 325.4752312771126 471.87801548332135L325.4752312771126 471.87801548332135Q320.5856986072225 471.87801548332135 319.68928428440927 466.8798265318781Q318.8200340319844 461.9088016508232 318.8200340319844 453.29779133773894L318.8200340319844 453.29779133773894Q318.8200340319844 436.4832317673946 327.62119283778657 403.4245581048597Q336.4223516435888 370.3658844423249 345.41365894210895 350.42745677732853L345.41365894210895 350.42745677732853Q324.4973247431346 350.8077537627645 314.1206498548122 358.63100603458867L314.1206498548122 358.63100603458867Q310.9967817601602 360.99428015836884 309.04096869220416 362.8414369447718Q307.0851556242481 364.6885937311747 305.6182958232811 364.6885937311747Q304.15143602231404 364.6885937311747 302.7660684325118 362.46113995933587Q301.4078649130979 360.2065221171088 301.4078649130979 357.0826540224568L301.4078649130979 357.0826540224568Q301.4078649130979 346.32568214869855 310.9967817601602 340.4582429448304L310.9967817601602 340.4582429448304Q324.6874732358525 332.22752961718203 349.92289462656316 329.4839585079659L349.92289462656316 329.4839585079659Q361.06016348575736 328.3159034812699 370.24161927699544 328.3159034812699L370.24161927699544 328.3159034812699L370.6490803328196 328.3159034812699Q372.0072838522335 328.3159034812699 374.4520501871786 329.89141956379007Q376.8968165221237 331.43977157592195 376.8968165221237 334.97110072639816Q376.8968165221237 338.5024298768743 375.6201052138746 342.90300927977546Q374.37055797601374 347.30358868267655 372.1974323449515 349.44955024335053L372.1974323449515 349.44955024335053Q371.0293773182555 358.8211545273066 367.11775118234345 371.94140052484505Q363.20612504643134 385.03448245199525 358.9142019250834 399.8932289543836L358.9142019250834 399.8932289543836Q347.9670815586071 438.2488963426327 347.9670815586071 460.33328556830304ZM444.56251585932523 422.7925402917023L444.56251585932523 422.7925402917023Q447.9036965170834 422.7925402917023 447.9036965170834 431.7838475902224L447.9036965170834 431.7838475902224Q447.9036965170834 436.67338026011254 443.8019218884534 443.62738227951183Q439.67298318943506 450.55422022852287 433.12644222585993 456.3401672212261Q426.57990126228486 462.0989501435411 418.5665004977427 465.82042778673525Q410.5530997332006 469.54190542992944 403.30029293953027 469.54190542992944Q396.0746502162482 469.54190542992944 391.9728755876182 466.7983343207133Q387.84393688859984 464.05476321149723 385.5078268352079 459.35537903432504L385.5078268352079 459.35537903432504Q382.193810247838 452.7001817891968 380.02068461677567 434.0384654324495Q377.8747230561017 415.34958500531394 375.72876149542765 407.933793789314L375.72876149542765 407.933793789314Q370.6490803328196 406.95588725533594 366.81894640807235 403.91351137184876Q363.01597655371336 400.8711354883616 363.01597655371336 396.4705560854605Q363.01597655371336 392.0699766825594 367.0362589711786 390.11416361460334Q371.0293773182555 388.1583505466473 376.10905848086355 388.1583505466473Q381.2159037138599 388.1583505466473 385.12752984977203 390.5216246704275L385.12752984977203 390.5216246704275Q395.6671891604241 379.16704324812713 404.2781994735083 360.77696759526265L404.2781994735083 360.77696759526265Q408.1898256094204 352.38326984528464 411.80264697106145 343.4734547579293Q415.4426324030907 334.59080374096226 419.3542585390028 325.19203538661793L419.3542585390028 325.19203538661793Q420.33216507298084 322.85592533322597 423.5375253787977 322.36697206623694Q426.77004975500284 321.8780187992479 432.0670434807171 321.8780187992479Q437.3368731360431 321.8780187992479 439.48283469671713 325.300691668171Q441.6287962573912 328.7233645370941 441.6287962573912 336.43796052736514Q441.6287962573912 344.15255651763624 437.5270216287611 354.1489344205227Q433.42524700013104 364.1181482530209 426.96019824772077 373.48975253697694L426.96019824772077 373.48975253697694Q413.48681933513467 393.26519577964365 395.88450172353026 403.2344096121418L395.88450172353026 403.2344096121418Q399.0083698181823 409.6722942941638 400.9641828861383 417.4140543548231Q402.91999595409436 425.12865034509423 404.6856605293325 431.6751913086693Q406.4241610341823 438.2488963426327 408.6787788764094 442.6494757455338Q410.9333967186365 447.0500551484349 414.2474133060065 447.0500551484349Q417.58859396376477 447.0500551484349 422.1793218593838 443.21992122368766Q426.77004975500284 439.4169513693287 431.279285439457 434.90771568487446Q435.76135705352294 430.4256440708085 439.4013424855523 426.59551014606126Q443.01416384719334 422.7925402917023 444.56251585932523 422.7925402917023Z " fill="#673ab7" transform="matrix(0.6009929883173184,0,0,0.6009929883173184,0,61.47910058617897)"/><path d="M668.4174842109917 460.84823314200486L668.4174842109917 460.84823314200486Q668.4174842109917 471.69929697179214 647.2770586790768 471.69929697179214L647.2770586790768 471.69929697179214Q642.6813139982257 471.69929697179214 641.8387608067364 467.0014246313666Q641.0217395301406 462.3290842058347 641.0217395301406 454.2354671845581L641.0217395301406 454.2354671845581Q641.0217395301406 438.4312118654091 649.2940799556726 407.3588714398772Q657.5664203812045 376.2865310143453 666.0174842109917 357.5461054824304L666.0174842109917 357.5461054824304Q646.3579097429066 357.90355229094104 636.6047182535449 365.25674378030277L636.6047182535449 365.25674378030277Q633.6685480407789 367.4780203760474 631.8302501684385 369.2141905888134Q629.9919522960981 370.95036080157934 628.6132288918427 370.95036080157934Q627.2345054875875 370.95036080157934 625.9323778280129 368.8567437803028Q624.6557820833322 366.73759484413256 624.6557820833322 363.8014246313666L624.6557820833322 363.8014246313666Q624.6557820833322 353.69078633349426 633.6685480407789 348.17589271647296L633.6685480407789 348.17589271647296Q646.5366331471619 340.439722503707 670.2557820833322 337.8609990994517L670.2557820833322 337.8609990994517Q680.7238671897151 336.76312675902614 689.3536544237577 336.76312675902614L689.3536544237577 336.76312675902614L689.7366331471619 336.76312675902614Q691.0132288918428 336.76312675902614 693.3111012322684 338.243977822856Q695.6089735726939 339.69929697179214 695.6089735726939 343.01844590796236Q695.6089735726939 346.3375948441326 694.4089735726939 350.4737650568985Q693.2345054875875 354.60993526966445 691.1919522960982 356.6269565462602L691.1919522960982 356.6269565462602Q690.0940799556726 365.4354671845581 686.4174842109917 377.7673820781751Q682.7408884663109 390.0737650568985 678.7068459131194 404.039722503707L678.7068459131194 404.039722503707Q668.4174842109917 440.09078633349424 668.4174842109917 460.84823314200486ZM759.2089735726938 425.5631267590262L759.2089735726938 425.5631267590262Q762.3493991046088 425.5631267590262 762.3493991046088 434.0141905888134L762.3493991046088 434.0141905888134Q762.3493991046088 438.6099352696645 758.4940799556725 445.1461054824304Q754.6132288918428 451.65674378030275 748.4600374024811 457.0950416526432Q742.3068459131193 462.50780761008997 734.7749310195023 466.00567995051557Q727.2430161258853 469.50355229094106 720.4259948492896 469.50355229094106Q713.6345054875875 469.50355229094106 709.7791863386512 466.92482888668576Q705.8983352748215 464.34610548243046 703.7025905939704 459.92908420583467L703.7025905939704 459.92908420583467Q700.5876969769492 453.6737650568985 698.5451437854598 436.1333395249836Q696.528122508864 418.5673820781751 694.5111012322684 411.59716931221766L694.5111012322684 411.59716931221766Q689.7366331471619 410.67802037604747 686.136633147162 407.81844590796237Q682.5621650620556 404.9588714398772 682.5621650620556 400.8227012271113Q682.5621650620556 396.68653101434535 686.3408884663108 394.8482331420049Q690.0940799556726 393.0099352696645 694.8685480407789 393.0099352696645Q699.6685480407789 393.0099352696645 703.3451437854599 395.23121186540914L703.3451437854599 395.23121186540914Q713.2515267641832 384.55887143987724 721.3451437854599 367.2737650568985L721.3451437854599 367.2737650568985Q725.0217395301406 359.3844033547709 728.4174842109917 351.0099352696645Q731.8387608067364 342.6609990994517 735.5153565514172 333.82695654626025L735.5153565514172 333.82695654626025Q736.4345054875874 331.6312118654091 739.4472714450343 331.17163739732405Q742.4855693173747 330.7120629292389 747.46429272163 330.7120629292389Q752.4174842109917 330.7120629292389 754.4345054875874 333.92908420583467Q756.4515267641832 337.14610548243047 756.4515267641832 344.39716931221767Q756.4515267641832 351.64823314200487 752.5962076152471 361.043977822856Q748.7408884663109 370.41419058881337 742.66429272163 379.22270122711126L742.66429272163 379.22270122711126Q730.000462934396 397.80993526966444 713.4557820833322 407.1801480356219L713.4557820833322 407.1801480356219Q716.3919522960981 413.23121186540914 718.2302501684385 420.50780761008997Q720.068548040779 427.7588714398773 721.7281225088641 433.91206292923897Q723.3621650620555 440.09078633349424 725.4813139982258 444.2269565462602Q727.600462934396 448.36312675902616 730.7153565514172 448.36312675902616Q733.8557820833322 448.36312675902616 738.1706757003534 444.7631267590262Q742.4855693173747 441.1886586739198 746.7238671897152 436.9503608015794Q750.936633147162 432.73759484413256 754.3579097429066 429.13759484413254Q757.7536544237577 425.5631267590262 759.2089735726938 425.5631267590262ZM794.136633147162 469.50355229094106L794.136633147162 469.50355229094106Q767.86429272163 469.6822756951964 758.2898246365237 449.81844590796237L758.2898246365237 449.81844590796237Q754.996207615247 442.8482331420049 754.996207615247 432.27802037604744Q754.996207615247 421.70780761009 756.8345054875874 409.7588714398772L756.8345054875874 409.7588714398772Q760.5111012322684 385.8609990994517 770.9791863386513 365.63972250370705L770.9791863386513 365.63972250370705Q776.3153565514173 355.32482888668574 782.9281225088641 347.971637397324L782.9281225088641 347.971637397324Q797.4557820833322 331.8099352696645 815.2770586790768 331.98865867391976L815.2770586790768 331.98865867391976Q823.1919522960982 331.98865867391976 827.6855693173748 336.30355229094107Q832.2047182535449 340.6184459079624 832.2047182535449 348.7120629292389Q832.2047182535449 356.8056799505155 827.4302501684385 364.97589271647297Q822.6302501684386 373.17163739732405 815.200462934396 381.90355229094104Q807.7451437854598 390.6354671845581 798.732377828013 400.18440335477084Q789.7451437854598 409.7588714398772 781.0898246365236 420.9673820781751L781.0898246365236 420.9673820781751L781.0898246365236 428.3205735675368Q781.0898246365236 438.6099352696645 785.5068459131194 443.3844033547709Q789.9238671897151 448.15887143987726 795.7962076152471 448.15887143987726L795.7962076152471 448.15887143987726Q811.600462934396 448.15887143987726 823.7536544237577 432.5333395249836L823.7536544237577 432.5333395249836Q828.7068459131194 426.0992969717921 831.2855693173748 426.0992969717921L831.2855693173748 426.0992969717921Q833.86429272163 426.0992969717921 833.86429272163 432.3546161207283Q833.86429272163 438.6099352696645 830.4430161258854 445.1461054824304Q827.0472714450343 451.65674378030275 821.5323778280131 457.0950416526432Q816.0174842109917 462.50780761008997 808.8430161258854 466.00567995051557Q801.6940799556726 469.50355229094106 794.136633147162 469.50355229094106ZM804.068548040779 370.771637397324Q807.9238671897151 365.99716931221764 810.1451437854598 362.1418501632815Q812.3408884663108 358.2865310143453 812.3408884663108 354.1503608015794Q812.3408884663108 350.01419058881345 809.404718253545 350.01419058881345L809.404718253545 350.01419058881345Q802.9706757003535 350.01419058881345 795.1579097429067 363.239722503707Q787.3451437854599 376.46525441860064 783.4898246365236 397.9886586739198L783.4898246365236 397.9886586739198Q789.7451437854598 388.4141905888134 794.9791863386513 381.9801480356219Q800.2132288918428 375.54610548243045 804.068548040779 370.771637397324ZM935.8898246365236 425.5631267590262L935.8898246365236 425.5631267590262Q939.1834416578002 425.5631267590262 939.1834416578002 434.0141905888134L939.1834416578002 434.0141905888134Q939.1834416578002 438.6099352696645 935.3281225088641 445.1461054824304Q931.4728033599279 451.65674378030275 925.3196118705662 457.0950416526432Q919.1408884663108 462.50780761008997 911.6089735726939 466.00567995051557Q904.0770586790768 469.50355229094106 896.9025905939704 469.50355229094106L896.9025905939704 469.50355229094106Q887.1749310195023 469.50355229094106 883.8557820833321 452.3971693122176L883.8557820833321 452.3971693122176Q879.0813139982258 460.31206292923895 871.3451437854599 465.3673820781751Q863.6345054875875 470.4227012271113 850.6642927216301 470.4227012271113Q837.7196118705663 470.4227012271113 829.8047182535449 462.3290842058347Q821.9153565514173 454.2354671845581 822.0940799556726 442.64397782285596L822.0940799556726 442.64397782285596Q822.0940799556726 411.3929139930687 842.8515267641833 393.3929139930687L842.8515267641833 393.3929139930687Q851.6855693173748 385.8609990994517 859.3196118705662 383.4609990994517Q866.9536544237577 381.0609990994517 875.404718253545 381.0609990994517Q883.8557820833321 381.0609990994517 889.1919522960982 384.02270122711127L889.1919522960982 384.02270122711127Q891.7706757003534 378.68653101434535 895.06429272163 378.68653101434535L895.06429272163 378.68653101434535Q901.4983352748216 378.68653101434535 907.2940799556726 384.27802037604744Q913.0898246365236 389.8950416526432 913.0898246365236 394.8482331420049L913.0898246365236 394.8482331420049Q910.5111012322684 400.92482888668576 905.5579097429065 409.37589271647295L905.5579097429065 409.37589271647295Q904.0770586790768 417.82695654626025 904.0770586790768 433.0950416526432Q904.0770586790768 448.36312675902616 907.932377828013 448.36312675902616L907.932377828013 448.36312675902616Q912.7068459131194 448.36312675902616 931.0898246365236 429.239722503707L931.0898246365236 429.239722503707Q934.4089735726939 425.5631267590262 935.8898246365236 425.5631267590262ZM849.1068459131194 436.59291399306875L849.1068459131194 436.59291399306875Q849.1068459131194 450.73759484413256 859.600462934396 450.73759484413256L859.600462934396 450.73759484413256Q870.8089735726938 450.55887143987724 878.1621650620556 438.78865867391977L878.1621650620556 438.78865867391977Q880.7408884663109 434.7546161207283 882.3749310195024 428.8567437803028L882.3749310195024 428.8567437803028Q882.3749310195024 408.27802037604744 886.0515267641832 393.571637397324L886.0515267641832 393.571637397324Q871.1664203812045 396.50780761008997 860.136633147162 407.9205735675368Q849.1068459131194 419.30780761009004 849.1068459131194 436.59291399306875ZM956.8259948492896 438.0482331420049L956.8259948492896 438.0482331420049L957.9493991046088 460.49078633349427Q957.9493991046088 464.90780761009 953.3536544237577 468.3801480356219Q948.7579097429066 471.87802037604746 940.8430161258854 471.87802037604746L940.8430161258854 471.87802037604746Q936.2472714450344 471.87802037604746 934.5111012322683 467.1035522909411Q932.7493991046088 462.3290842058347 932.7493991046088 453.1375948441326L932.7493991046088 453.1375948441326Q932.7493991046088 433.83546718455807 934.6898246365237 422.88227569519637Q936.6047182535449 411.9546161207283 942.3238671897152 400.74610548243044L942.3238671897152 400.74610548243044Q933.8472714450343 392.65248846115384 933.8472714450343 386.78014803562195L933.8472714450343 386.78014803562195Q933.8472714450343 374.4482331420049 947.0983352748215 374.4482331420049L947.0983352748215 374.4482331420049Q953.8898246365236 374.4482331420049 959.0472714450343 381.6227012271113L959.0472714450343 381.6227012271113Q962.7238671897151 386.575892716473 964.3834416578003 393.21419058881344L964.3834416578003 393.21419058881344Q966.936633147162 394.1333395249836 970.8174842109918 394.1333395249836L970.8174842109918 394.1333395249836Q976.1281225088641 394.1333395249836 983.1238671897152 390.6354671845581L983.1238671897152 390.6354671845581L987.8983352748216 388.2354671845581Q990.1196118705662 387.13759484413254 991.7536544237578 387.13759484413254L991.7536544237578 387.13759484413254Q997.0898246365236 387.13759484413254 1002.4259948492896 402.7631267590262L1002.4259948492896 402.7631267590262Q1000.7664203812045 409.93759484413255 998.8515267641833 416.55036080157936Q996.9111012322684 423.16312675902617 994.332377828013 432.5333395249836Q991.7536544237578 441.92908420583467 991.6770586790769 445.1461054824304Q991.5749310195024 448.36312675902616 993.591952296098 448.36312675902616L993.591952296098 448.36312675902616Q996.3493991046089 448.36312675902616 1000.4089735726939 444.8652544186006Q1004.4430161258854 441.3673820781751 1008.5025905939705 437.23121186540914Q1012.5366331471619 433.0950416526432 1015.932377828013 429.59716931221766Q1019.3281225088641 426.0992969717921 1020.6302501684386 426.0992969717921L1020.6302501684386 426.0992969717921Q1023.2089735726938 426.0992969717921 1023.2089735726938 432.3546161207283L1023.2089735726938 432.3546161207283Q1023.2089735726938 445.043977822856 1012.0770586790768 457.35036080157937Q1000.9451437854598 469.6822756951964 986.6217395301408 469.50355229094106L986.6217395301408 469.50355229094106Q978.1706757003535 469.50355229094106 973.932377828013 462.68653101434535Q969.6940799556726 455.8950416526432 969.5153565514172 446.1418501632815L969.5153565514172 446.1418501632815Q969.5153565514172 426.83972250370704 978.1706757003535 409.55461612072827L978.1706757003535 409.55461612072827Q974.1111012322683 411.21419058881344 969.0557820833322 411.21419058881344Q964.000462934396 411.21419058881344 961.8047182535449 410.8567437803028L961.8047182535449 410.8567437803028Q960.1451437854598 417.82695654626025 958.4855693173747 424.92482888668576Q956.8259948492896 431.99716931221764 956.8259948492896 438.0482331420049ZM1036.0770586790768 469.50355229094106L1036.0770586790768 469.50355229094106Q1017.6940799556726 469.50355229094106 1017.6940799556726 435.11206292923896L1017.6940799556726 435.11206292923896Q1017.6940799556726 416.37163739732404 1022.2898246365237 401.1035522909411L1022.2898246365237 401.1035522909411Q1029.4387608067364 377.5886586739198 1038.4515267641832 377.5886586739198L1038.4515267641832 377.5886586739198Q1043.7876969769493 377.5886586739198 1046.9025905939704 384.73759484413256L1046.9025905939704 384.73759484413256Q1049.4813139982257 390.25248846115386 1049.3025905939703 395.5886586739198L1049.3025905939703 395.5886586739198Q1049.3025905939703 402.94185016328146 1044.8855693173748 421.50355229094106L1044.8855693173748 421.50355229094106Q1040.672803359928 437.69078633349426 1040.672803359928 441.5461054824304Q1040.672803359928 445.4014246313666 1042.5876969769492 446.88227569519637Q1044.528122508864 448.36312675902616 1047.1834416578004 448.36312675902616Q1049.8642927216301 448.36312675902616 1053.8983352748216 444.8652544186006Q1057.9323778280132 441.3673820781751 1061.9919522960981 437.23121186540914Q1066.0259948492896 433.0950416526432 1069.4217395301407 429.59716931221766Q1072.8430161258852 426.0992969717921 1074.1196118705661 426.0992969717921L1074.1196118705661 426.0992969717921Q1076.6983352748216 426.0992969717921 1076.6983352748216 432.3546161207283L1076.6983352748216 432.3546161207283Q1076.6983352748216 445.22270122711126 1063.728122508864 457.4524884611538Q1050.7834416578003 469.6822756951964 1036.0770586790768 469.50355229094106ZM1043.608973572694 362.67802037604747L1043.608973572694 362.67802037604747Q1038.6302501684386 355.32482888668574 1038.6302501684386 346.8737650568985Q1038.6302501684386 338.4227012271113 1041.3111012322684 332.8056799505155Q1043.9664203812044 327.2141905888134 1046.3664203812045 324.5333395249836Q1048.740888466311 321.87802037604746 1051.8813139982258 321.87802037604746L1051.8813139982258 321.87802037604746Q1057.0132288918428 321.87802037604746 1061.2515267641834 329.51206292923894Q1065.4898246365237 337.14610548243047 1065.4898246365237 342.27802037604744L1065.4898246365237 342.27802037604744Q1065.4898246365237 351.8524884611538 1058.7749310195024 357.26525441860065Q1052.0600374024812 362.67802037604747 1043.608973572694 362.67802037604747ZM1180.3834416578002 425.5631267590262L1180.3834416578002 425.5631267590262Q1183.6770586790767 425.5631267590262 1183.6770586790767 434.0141905888134L1183.6770586790767 434.0141905888134Q1183.6770586790767 438.6099352696645 1179.8217395301408 445.1461054824304Q1175.9664203812044 451.65674378030275 1169.8132288918428 457.0950416526432Q1163.6345054875874 462.50780761008997 1156.1025905939705 466.00567995051557Q1148.5706757003536 469.50355229094106 1141.396207615247 469.50355229094106L1141.396207615247 469.50355229094106Q1131.2855693173747 469.50355229094106 1128.1706757003535 452.9588714398772L1128.1706757003535 452.9588714398772Q1117.140888466311 470.4227012271113 1095.4387608067364 470.4227012271113L1095.4387608067364 470.4227012271113Q1082.2132288918428 470.4227012271113 1074.2983352748215 462.3290842058347Q1066.4089735726939 454.2354671845581 1066.5876969769492 442.64397782285596L1066.5876969769492 442.64397782285596Q1066.5876969769492 411.3929139930687 1087.3451437854599 393.3929139930687L1087.3451437854599 393.3929139930687Q1101.6940799556726 381.0609990994517 1117.140888466311 381.0609990994517L1117.140888466311 381.0609990994517Q1124.1111012322683 381.0609990994517 1128.1706757003535 382.18440335477084L1128.1706757003535 382.18440335477084L1132.3834416578002 383.2822756951964Q1139.9408884663108 347.79291399306874 1149.8472714450343 335.84397782285595L1149.8472714450343 335.84397782285595Q1153.1664203812045 331.8099352696645 1156.4855693173747 331.8099352696645L1156.4855693173747 331.8099352696645Q1161.796207615247 331.8099352696645 1166.3919522960982 339.16312675902617L1166.3919522960982 339.16312675902617Q1170.4515267641832 345.2141905888134 1170.4515267641832 349.63121186540917Q1170.4515267641832 354.0482331420049 1169.1493991046086 358.2865310143453Q1167.872803359928 362.49929697179215 1165.9323778280132 366.0992969717921Q1164.0174842109918 369.6737650568985 1161.6174842109917 373.06950973774957Q1159.2430161258853 376.46525441860064 1156.8430161258852 379.9631267590262L1156.8430161258852 379.9631267590262Q1151.5068459131194 399.8269565462602 1148.9281225088641 424.46525441860064L1148.9281225088641 424.46525441860064Q1148.2132288918428 431.4354671845581 1148.2132288918428 435.6737650568985L1148.2132288918428 435.6737650568985Q1148.2132288918428 448.36312675902616 1152.4259948492895 448.36312675902616L1152.4259948492895 448.36312675902616Q1157.200462934396 448.36312675902616 1175.5834416578002 429.239722503707L1175.5834416578002 429.239722503707Q1178.9025905939707 425.5631267590262 1180.3834416578002 425.5631267590262ZM1093.600462934396 436.59291399306875L1093.600462934396 436.59291399306875Q1093.600462934396 450.73759484413256 1104.0940799556727 450.73759484413256L1104.0940799556727 450.73759484413256Q1110.3238671897152 450.73759484413256 1116.6813139982257 445.9631267590262Q1123.0132288918428 441.1886586739198 1126.5111012322682 429.98014803562194L1126.5111012322682 429.98014803562194Q1126.868548040779 413.4354671845581 1130.3664203812045 393.571637397324L1130.3664203812045 393.571637397324Q1115.660037402481 396.50780761008997 1104.6302501684386 407.9205735675368Q1093.600462934396 419.30780761009004 1093.600462934396 436.59291399306875ZM1287.3621650620555 425.5631267590262L1287.3621650620555 425.5631267590262Q1290.6813139982257 425.5631267590262 1290.6813139982257 434.0141905888134L1290.6813139982257 434.0141905888134Q1290.6813139982257 438.6099352696645 1286.8004629343961 445.1461054824304Q1282.9451437854598 451.65674378030275 1276.791952296098 457.0950416526432Q1270.6387608067364 462.50780761008997 1263.1068459131195 466.00567995051557Q1255.5493991046087 469.50355229094106 1248.400462934396 469.50355229094106L1248.400462934396 469.50355229094106Q1238.6472714450342 469.50355229094106 1235.3281225088642 452.3971693122176L1235.3281225088642 452.3971693122176Q1230.5536544237577 460.31206292923895 1222.8430161258852 465.3673820781751Q1215.1068459131193 470.4227012271113 1202.1621650620555 470.4227012271113Q1189.1919522960982 470.4227012271113 1181.3025905939705 462.3290842058347Q1173.387696976949 454.2354671845581 1173.5664203812046 442.64397782285596L1173.5664203812046 442.64397782285596Q1173.5664203812046 411.3929139930687 1194.3493991046087 393.3929139930687L1194.3493991046087 393.3929139930687Q1203.1579097429067 385.8609990994517 1210.7919522960983 383.4609990994517Q1218.4259948492895 381.0609990994517 1226.877058679077 381.0609990994517Q1235.3281225088642 381.0609990994517 1240.66429272163 384.02270122711127L1240.66429272163 384.02270122711127Q1243.2430161258856 378.68653101434535 1246.5621650620558 378.68653101434535L1246.5621650620558 378.68653101434535Q1252.9962076152472 378.68653101434535 1258.7664203812046 384.27802037604744Q1264.5621650620556 389.8950416526432 1264.5621650620556 394.8482331420049L1264.5621650620556 394.8482331420049Q1261.9834416578003 400.92482888668576 1257.0302501684384 409.37589271647295L1257.0302501684384 409.37589271647295Q1255.5493991046087 417.82695654626025 1255.5493991046087 433.0950416526432Q1255.5493991046087 448.36312675902616 1259.4302501684385 448.36312675902616L1259.4302501684385 448.36312675902616Q1264.204718253545 448.36312675902616 1282.5876969769492 429.239722503707L1282.5876969769492 429.239722503707Q1285.8813139982258 425.5631267590262 1287.3621650620555 425.5631267590262ZM1200.604718253545 436.59291399306875L1200.604718253545 436.59291399306875Q1200.604718253545 450.73759484413256 1211.072803359928 450.73759484413256L1211.072803359928 450.73759484413256Q1222.2813139982259 450.55887143987724 1229.6345054875874 438.78865867391977L1229.6345054875874 438.78865867391977Q1232.2132288918428 434.7546161207283 1233.872803359928 428.8567437803028L1233.872803359928 428.8567437803028Q1233.872803359928 408.27802037604744 1237.549399104609 393.571637397324L1237.549399104609 393.571637397324Q1222.6642927216299 396.50780761008997 1211.6345054875874 407.9205735675368Q1200.604718253545 419.30780761009004 1200.604718253545 436.59291399306875ZM1289.6600374024813 458.93333952498364Q1287.540888466311 454.0567437803028 1286.6217395301408 447.5205735675368Q1285.7025905939706 441.0099352696645 1285.7025905939706 429.239722503707Q1285.7025905939706 417.4695097377496 1290.1196118705664 397.4269565462602L1290.1196118705664 397.4269565462602L1281.8472714450343 397.4269565462602Q1279.6515267641832 397.4269565462602 1279.6515267641832 395.5886586739198L1279.6515267641832 395.5886586739198Q1279.6515267641832 391.17163739732405 1280.468548040779 388.3375948441325Q1281.2855693173747 385.4780203760475 1284.4259948492897 381.8014246313666L1284.4259948492897 381.8014246313666L1288.8430161258855 381.8014246313666Q1291.3962076152472 381.8014246313666 1294.3579097429067 381.6227012271113L1294.3579097429067 381.6227012271113Q1303.1664203812045 353.30780761009 1312.3579097429067 353.30780761009L1312.3579097429067 353.30780761009Q1319.7111012322682 353.4865310143453 1322.6472714450344 362.67802037604747L1322.6472714450344 362.67802037604747Q1323.3876969769492 365.25674378030277 1324.3068459131193 368.1929139930687L1324.3068459131193 368.1929139930687L1316.7749310195024 381.44397782285597Q1329.6430161258852 381.8014246313666 1333.0387608067365 381.8014246313666Q1336.4345054875876 381.8014246313666 1336.7153565514175 382.439722503707Q1336.9962076152472 383.1035522909411 1336.9962076152472 384.3801480356219L1336.9962076152472 384.3801480356219Q1336.9962076152472 387.69929697179214 1335.4387608067366 392.65248846115384Q1333.8813139982258 397.60567995051554 1331.8387608067364 397.4269565462602L1331.8387608067364 397.4269565462602L1313.4557820833322 396.50780761008997Q1309.600462934396 418.9503608015794 1309.600462934396 433.65674378030275Q1309.600462934396 448.36312675902616 1313.8387608067362 448.36312675902616L1313.8387608067362 448.36312675902616Q1317.3366331471618 448.36312675902616 1326.528122508864 442.5673820781751Q1335.7196118705663 436.771637397324 1339.7536544237578 431.4354671845581Q1343.7876969769493 426.0992969717921 1346.3664203812045 426.0992969717921L1346.3664203812045 426.0992969717921Q1348.9451437854598 426.0992969717921 1348.9451437854598 432.3546161207283Q1348.9451437854598 438.6099352696645 1344.528122508864 445.1461054824304Q1340.1111012322683 451.65674378030275 1333.4217395301407 457.0950416526432Q1326.7068459131194 462.50780761008997 1318.5111012322684 466.00567995051557Q1310.3408884663108 469.50355229094106 1304.26429272163 469.50355229094106Q1298.2132288918426 469.50355229094106 1294.9962076152472 466.64397782285596Q1291.7791863386512 463.78440335477086 1289.6600374024813 458.93333952498364ZM1452.6302501684386 425.5631267590262L1452.6302501684386 425.5631267590262Q1455.923867189715 425.5631267590262 1455.923867189715 434.0141905888134L1455.923867189715 434.0141905888134Q1455.923867189715 438.6099352696645 1452.068548040779 445.1461054824304Q1448.2132288918426 451.65674378030275 1442.0600374024812 457.0950416526432Q1435.9068459131192 462.50780761008997 1428.3493991046087 466.00567995051557Q1420.8174842109918 469.50355229094106 1413.6430161258854 469.50355229094106L1413.6430161258854 469.50355229094106Q1403.9153565514173 469.50355229094106 1400.596207615247 452.3971693122176L1400.596207615247 452.3971693122176Q1395.8217395301406 460.31206292923895 1388.1111012322683 465.3673820781751Q1380.3749310195024 470.4227012271113 1367.4302501684385 470.4227012271113Q1354.460037402481 470.4227012271113 1346.5451437854597 462.3290842058347Q1338.6557820833323 454.2354671845581 1338.8345054875874 442.64397782285596L1338.8345054875874 442.64397782285596Q1338.8345054875874 411.3929139930687 1359.6174842109917 393.3929139930687L1359.6174842109917 393.3929139930687Q1368.4259948492895 385.8609990994517 1376.060037402481 383.4609990994517Q1383.6940799556726 381.0609990994517 1392.1451437854598 381.0609990994517Q1400.596207615247 381.0609990994517 1405.9323778280132 384.02270122711127L1405.9323778280132 384.02270122711127Q1408.5111012322684 378.68653101434535 1411.804718253545 378.68653101434535L1411.804718253545 378.68653101434535Q1418.2387608067365 378.68653101434535 1424.0345054875875 384.27802037604744Q1429.8302501684386 389.8950416526432 1429.8302501684386 394.8482331420049L1429.8302501684386 394.8482331420049Q1427.2515267641832 400.92482888668576 1422.2983352748217 409.37589271647295L1422.2983352748217 409.37589271647295Q1420.8174842109918 417.82695654626025 1420.8174842109918 433.0950416526432Q1420.8174842109918 448.36312675902616 1424.672803359928 448.36312675902616L1424.672803359928 448.36312675902616Q1429.4728033599279 448.36312675902616 1447.8557820833323 429.239722503707L1447.8557820833323 429.239722503707Q1451.1493991046088 425.5631267590262 1452.6302501684386 425.5631267590262ZM1365.8472714450343 436.59291399306875L1365.8472714450343 436.59291399306875Q1365.8472714450343 450.73759484413256 1376.340888466311 450.73759484413256L1376.340888466311 450.73759484413256Q1387.5493991046087 450.55887143987724 1394.9025905939704 438.78865867391977L1394.9025905939704 438.78865867391977Q1397.481313998226 434.7546161207283 1399.1408884663108 428.8567437803028L1399.1408884663108 428.8567437803028Q1399.1408884663108 408.27802037604744 1402.8174842109918 393.571637397324L1402.8174842109918 393.571637397324Q1387.9068459131195 396.50780761008997 1376.8770586790768 407.9205735675368Q1365.8472714450343 419.30780761009004 1365.8472714450343 436.59291399306875Z " fill="#ffffff" transform="matrix(0.6009929883173184,0,0,0.6009929883173184,0,61.47910058617897)"/></g></svg>